HIERARCHY
ROOT Hips
{
	OFFSET -3.958830 18.904000 13.208200
	CHANNELS 6 Xposition Yposition Zposition Zrotation Yrotation Xrotation 
	JOINT LHipJoint
	{
		OFFSET 0.000000 0.000000 0.000000
		CHANNELS 3 Zrotation Yrotation Xrotation
		JOINT LeftUpLeg
		{
			OFFSET 1.800000 -1.400000 0.085000
			CHANNELS 3 Zrotation Yrotation Xrotation
			JOINT LeftLeg
			{
				OFFSET 2.215000 -6.000000 0.000000
				CHANNELS 3 Zrotation Yrotation Xrotation
				JOINT LeftFoot
				{
					OFFSET 2.500000 -6.900000 0.000000
					CHANNELS 3 Zrotation Yrotation Xrotation
					JOINT LeftToeBase
					{
						OFFSET 0.200000 -0.500000 1.950000
						CHANNELS 3 Zrotation Yrotation Xrotation
						End Site
						{
							OFFSET 0.000000 0.000000 0.000000
						}
					}
				}
			}
		}
	}
	JOINT RHipJoint
	{
		OFFSET 0.000000 0.000000 0.000000
		CHANNELS 3 Zrotation Yrotation Xrotation
		JOINT RightUpLeg
		{
			OFFSET -1.800000 -1.400000 0.085000
			CHANNELS 3 Zrotation Yrotation Xrotation
			JOINT RightLeg
			{
				OFFSET -2.215000 -6.000000 0.000000
				CHANNELS 3 Zrotation Yrotation Xrotation
				JOINT RightFoot
				{
					OFFSET -2.500000 -6.900000 0.000000
					CHANNELS 3 Zrotation Yrotation Xrotation
					JOINT RightToeBase
					{
						OFFSET -0.200000 -0.500000 1.950000
						CHANNELS 3 Zrotation Yrotation Xrotation
						End Site
						{
							OFFSET 0.000000 0.000000 0.000000
						}
					}
				}
			}
		}
	}
	JOINT LowerBack
	{
		OFFSET 0.000000 0.000000 0.000000
		CHANNELS 3 Zrotation Yrotation Xrotation
		JOINT Spine
		{
			OFFSET -0.087000 1.940000 -0.288900
			CHANNELS 3 Zrotation Yrotation Xrotation
			JOINT Spine1
			{
				OFFSET 0.000000 1.950000 0.060000
				CHANNELS 3 Zrotation Yrotation Xrotation
				JOINT Neck
				{
					OFFSET 0.000000 0.000000 0.000000
					CHANNELS 3 Zrotation Yrotation Xrotation
					JOINT Neck1
					{
						OFFSET 0.000000 1.600000 0.340000
						CHANNELS 3 Zrotation Yrotation Xrotation
						JOINT Head
						{
							OFFSET 0.000000 1.667000 -0.240000
							CHANNELS 3 Zrotation Yrotation Xrotation
							End Site
							{
								OFFSET 0.000000 0.000000 0.000000
							}
						}
					}
				}
				JOINT LeftShoulder
				{
					OFFSET 0.000000 0.000000 0.000000
					CHANNELS 3 Zrotation Yrotation Xrotation
					JOINT LeftArm
					{
						OFFSET 2.700000 1.550000 -0.730000
						CHANNELS 3 Zrotation Yrotation Xrotation
						JOINT LeftForeArm
						{
							OFFSET 5.450000 0.000000 0.000000
							CHANNELS 3 Zrotation Yrotation Xrotation
							JOINT LeftHand
							{
								OFFSET 3.450000 0.000000 0.000000
								CHANNELS 3 Zrotation Yrotation Xrotation
								JOINT LeftHandIndex1
								{
									OFFSET 0.750000 0.000000 0.000000
									CHANNELS 3 Zrotation Yrotation Xrotation
									End Site
									{
										OFFSET 0.000000 0.000000 0.000000
									}
								}
							}
						}
					}
				}
				JOINT RightShoulder
				{
					OFFSET 0.000000 0.000000 0.000000
					CHANNELS 3 Zrotation Yrotation Xrotation
					JOINT RightArm
					{
						OFFSET -2.700000 1.550000 -0.730000
						CHANNELS 3 Zrotation Yrotation Xrotation
						JOINT RightForeArm
						{
							OFFSET -5.450000 0.000000 0.000000
							CHANNELS 3 Zrotation Yrotation Xrotation
							JOINT RightHand
							{
								OFFSET -3.450000 0.000000 0.000000
								CHANNELS 3 Zrotation Yrotation Xrotation
								JOINT RightHandIndex1
								{
									OFFSET -0.750000 0.000000 0.000000
									CHANNELS 3 Zrotation Yrotation Xrotation
									End Site
									{
										OFFSET 0.000000 0.000000 0.000000
									}
								}
							}
						}
					}
				}
			}
		}
	}
}
MOTION
Frames: 13
Frame Time: 0.016667
-2.310740 16.768450 -7.597650 -2.689404 -29.108932 0.749582 -15.092572 14.578639 2.730843 13.749869 -0.481347 -2.604157 -5.435362 7.473734 17.981200 0.148503 5.304099 2.853266 0.507210 0.315590 0.317370 18.101185 -10.852687 2.591975 -14.128224 0.397202 -27.139294 2.647585 -5.106924 20.589312 -0.199781 -2.956302 3.241559 0.058580 0.110090 0.342180 -2.941602 -3.499186 -7.358092 7.429707 -7.553341 15.005727 0.373374 -7.700636 2.499026 2.286498 -3.975730 -10.014597 -8.022658 4.514448 27.518453 -1.690220 3.565270 -15.315910 -11.176956 0.833865 1.381818 -37.083163 -0.008579 -4.751649 18.552277 -16.523019 -2.448815 -3.609760 3.144535 0.420300 -0.017180 0.205180 0.332360 7.171562 1.946342 7.868945 38.645017 -4.473212 -6.907449 173.634763 63.438054 155.227561 1.986953 -2.130103 0.051890 0.024680 -0.244760 0.005850 
-2.353840 16.774930 -7.581850 -2.876620 -27.410573 1.868674 -15.081481 14.451956 2.794011 14.451909 -0.590960 -3.593842 -6.781912 7.699920 17.065303 0.139845 5.340265 2.849809 0.449940 0.253820 0.290690 18.108730 -10.863447 2.593044 -13.838165 0.635600 -26.447653 2.877255 -4.929427 19.301595 -0.163959 -2.865023 3.297575 0.033940 0.148290 0.334650 -3.001821 -3.265477 -7.389560 8.305292 -7.296371 14.876653 0.474718 -7.309761 0.959601 2.529520 -3.425023 -9.571869 -6.680521 4.021406 26.146580 -2.821840 4.115090 -14.909370 -11.387867 3.287457 0.746432 -36.044411 3.926267 -6.134533 19.018813 -22.155230 -2.932686 -3.612782 3.117685 0.403490 0.018300 0.172750 0.317790 6.778040 -0.687843 7.660009 38.319591 -5.852212 -5.537512 -178.202729 59.670329 167.845964 2.013223 -2.245163 0.021140 0.039940 -0.214670 -0.000940 
-2.384950 16.785060 -7.564610 -2.692807 -25.258994 2.819449 -15.071507 14.271031 2.886921 14.919830 -0.724687 -4.494727 -8.583743 7.946730 15.898061 0.128504 5.418286 2.826212 0.402030 0.187690 0.275240 18.123637 -10.864318 2.582169 -14.166752 0.678216 -25.864848 3.397037 -4.953241 18.231243 -0.144522 -2.866804 3.306461 0.007120 0.181490 0.348830 -3.087737 -3.001067 -7.432691 9.181302 -7.034810 14.590568 0.025362 -6.914894 -0.567036 2.821558 -2.725526 -8.972686 -5.192455 3.413665 25.082643 -4.176620 4.653660 -14.406020 -11.191280 6.053906 -0.170863 -35.122858 6.830927 -7.181910 19.249232 -28.467476 -3.505399 -3.627147 3.117259 0.396280 0.058330 0.144830 0.299510 5.838779 -3.860817 7.516304 39.931446 -7.681927 -4.731201 -173.631638 56.406130 175.920653 2.014505 -2.319953 -0.003070 0.040550 -0.178770 -0.016810 
-2.399220 16.798710 -7.552610 -2.500736 -21.481866 3.986810 -15.061986 14.152430 2.963341 15.117398 -1.100020 -6.634476 -9.503438 7.925193 15.465841 0.093231 5.354957 2.834731 0.343980 0.106030 0.248410 18.119728 -10.867012 2.590423 -14.884193 0.553485 -25.017153 4.261320 -5.058333 16.742080 -0.127119 -2.889767 3.310722 -0.038040 0.205680 0.359230 -3.144330 -2.854258 -7.512350 10.079238 -6.988870 14.609564 -0.162607 -6.557936 -3.189566 3.143981 -1.893669 -8.491177 -3.576008 2.584133 24.254697 -5.008610 4.987100 -13.603850 -9.903004 9.444173 -1.330183 -35.417516 8.452683 -8.046145 19.374770 -35.986005 -4.207636 -3.620715 3.150415 0.395940 0.086180 0.117000 0.280310 3.708617 -7.692977 7.723988 43.335786 -10.607135 -4.609510 -169.170628 53.529386 -175.236343 2.013045 -2.396165 -0.023850 0.023780 -0.144250 -0.031120 
-2.402720 16.815810 -7.541040 -2.333040 -17.584796 5.139284 -15.081527 14.021691 3.040126 15.123682 -1.403534 -8.512309 -10.296499 7.777297 14.654471 0.046879 5.230691 2.855532 0.313180 0.052480 0.245210 18.098820 -10.829645 2.606408 -15.543664 0.551309 -24.033062 5.243111 -5.090061 15.123002 -0.126118 -2.898201 3.311752 -0.069590 0.186530 0.352470 -3.146431 -2.749187 -7.588075 10.546468 -6.188373 14.095877 0.633880 -5.436059 -4.869678 3.131872 -1.169783 -8.112990 -2.322715 0.671922 24.062563 -5.368140 4.167670 -13.879800 -8.902519 11.793793 -2.110182 -36.673296 9.184214 -9.087682 18.949038 -41.091003 -4.803777 -3.580665 3.177986 0.424990 0.073280 0.112350 0.257130 2.636497 -10.278262 7.822069 46.554158 -14.262173 -6.259157 -163.209820 50.409596 -163.206846 2.025001 -2.418927 -0.041470 0.007310 -0.127800 -0.053870 
-2.398020 16.848620 -7.524700 -2.172507 -13.728450 6.564496 -15.128932 13.993441 3.155470 14.894088 -1.878211 -11.014765 -10.754945 7.639804 14.554698 0.009089 5.096131 2.869259 0.245790 -0.070150 0.243810 18.031366 -10.728514 2.667839 -16.056211 0.684323 -23.141409 6.178561 -4.991981 13.216916 -0.116206 -2.843051 3.333752 -0.154550 0.150860 0.344470 -3.033748 -2.915973 -7.757122 10.554277 -5.788345 14.277290 2.023158 -4.141064 -8.190884 3.161214 -0.610528 -8.095923 -1.457342 -0.794245 24.447877 -5.765940 3.933610 -13.856110 -7.375459 14.575466 -2.178966 -37.915538 12.902262 -10.826605 15.552548 -49.303543 -4.928748 -3.500702 3.275812 0.477920 0.040210 0.104980 0.204580 0.975024 -12.882208 7.549024 48.415687 -17.854278 -8.091138 -156.773719 46.722301 -147.067098 2.062280 -2.393067 -0.062660 -0.033440 -0.088680 -0.096420 
-2.387920 16.871340 -7.516350 -1.640164 -11.023759 8.340704 -15.186663 13.850400 3.239079 14.109353 -2.296411 -13.164792 -11.471790 7.455552 13.956931 -0.042932 4.960430 2.902719 0.202370 -0.132840 0.239620 17.992966 -10.618913 2.727844 -16.695944 0.953054 -23.646043 6.519395 -4.819714 12.173468 -0.091043 -2.809676 3.343903 -0.181850 0.158600 0.342510 -2.950451 -2.882636 -7.808295 9.728123 -4.818824 13.651589 3.609983 -2.636125 -10.480899 2.736167 -0.043978 -7.601404 -0.333015 -1.994539 23.063656 -6.190340 4.028100 -13.536620 -6.358116 16.890150 -1.766475 -37.498358 17.527032 -12.073934 9.162869 -57.220233 -3.717726 -3.489412 3.445337 0.481720 0.059130 0.081530 0.174110 0.869613 -15.233924 6.118198 49.483768 -20.230113 -9.863171 -151.460434 44.071659 -131.924286 2.047552 -2.353995 -0.086600 -0.042130 -0.058710 -0.122510 
-2.367360 16.879450 -7.512060 -1.183832 -8.319832 10.129954 -15.231590 13.608533 3.316270 13.581447 -2.699551 -15.195890 -12.453890 7.349820 13.212975 -0.121715 4.926005 2.915600 0.133350 -0.233880 0.234670 17.985769 -10.537133 2.769514 -17.383821 1.261143 -24.368107 6.787706 -4.727619 11.633756 -0.044298 -2.851300 3.322754 -0.204790 0.200570 0.343840 -2.933124 -2.645203 -7.799480 8.907164 -3.337873 12.491349 4.760792 -0.950867 -12.017066 2.270014 0.929642 -7.078670 1.590660 -3.685053 21.094648 -7.801920 4.188430 -11.604950 -6.137737 17.893523 -0.860302 -35.281375 22.403996 -12.427575 0.714848 -65.148529 -1.042971 -3.553736 3.639618 0.465370 0.124530 0.021540 0.131710 1.626493 -16.785879 4.288969 51.962417 -21.991591 -12.118824 -145.738471 39.671054 -111.894742 1.980327 -2.295074 -0.140720 -0.041370 -0.006490 -0.163320 
-2.339300 16.873990 -7.507570 -1.268013 -5.524893 11.363510 -15.256595 13.376079 3.344954 13.704656 -3.000680 -17.171132 -13.098238 7.536132 13.742204 -0.242919 5.092435 2.863423 0.066910 -0.343930 0.231440 18.006694 -10.480785 2.767320 -17.678518 1.518828 -24.196413 7.247231 -4.687639 10.927319 -0.005703 -2.933631 3.287986 -0.205820 0.282530 0.347280 -2.985335 -2.392832 -7.711357 8.526335 -2.038206 11.339180 5.467644 0.082041 -12.298040 1.909590 1.713991 -6.293541 3.227051 -4.478447 19.100983 -8.865540 4.170320 -10.293620 -6.269543 18.161015 0.038208 -34.830993 26.447949 -13.661737 -1.163391 -72.008420 -1.598928 -3.662052 3.682266 0.469320 0.205410 -0.051180 0.092930 2.598529 -17.715762 2.101752 53.627100 -22.016552 -13.750416 -140.848022 34.119204 -88.643091 1.861318 -2.251269 -0.229720 0.010380 0.070820 -0.212130 
-2.301220 16.875410 -7.508270 -1.493409 -3.227463 11.955989 -15.284689 13.241650 3.430149 14.252820 -3.111839 -18.869682 -14.017761 8.047372 14.847569 -0.256179 5.352934 2.777766 0.030600 -0.426740 0.253010 18.002495 -10.423836 2.747477 -17.947129 1.761770 -23.652888 7.751738 -4.732510 10.671734 0.003933 -2.995983 3.276237 -0.236260 0.317160 0.345690 -2.980408 -2.322826 -7.720239 8.149948 -0.966517 11.192043 6.559040 0.953153 -12.639629 1.439764 1.727433 -6.050436 3.307722 -4.174178 18.769549 -9.697340 4.637750 -9.245970 -5.676540 18.431385 1.409961 -36.725009 30.929084 -15.663925 -3.987214 -77.916864 -1.263570 -3.668092 3.721919 0.492160 0.231840 -0.078740 0.077710 3.103511 -17.828113 0.286745 54.468338 -20.832800 -14.730981 -136.972633 29.721287 -68.602336 1.830096 -2.263377 -0.277410 0.034400 0.095050 -0.243320 
-2.265540 16.874430 -7.504620 -1.797215 -0.967958 12.356115 -15.299847 13.119898 3.459046 14.619013 -3.103680 -20.242326 -14.267262 8.373297 15.814002 -0.295719 5.508050 2.735784 0.015150 -0.442860 0.240370 18.013855 -10.408346 2.712987 -18.053564 1.909184 -22.867130 8.019642 -4.689392 10.268735 0.016544 -3.044251 3.281795 -0.212260 0.375230 0.300830 -3.012686 -2.190299 -7.664094 7.513721 0.058821 11.128282 7.547061 1.574000 -12.464251 0.818434 1.484109 -5.606751 3.071108 -2.985303 17.772368 -8.129290 4.534330 -9.321190 -4.798160 19.244350 2.355028 -39.004773 34.713376 -17.718995 -7.104252 -83.000383 -0.104468 -3.642012 3.752928 0.501620 0.248410 -0.115510 0.088250 3.637844 -18.293255 -1.264731 53.040035 -20.145438 -14.644652 -134.209192 26.377508 -54.032216 1.833057 -2.294028 -0.340990 0.110970 0.108590 -0.247770 
-2.221130 16.871520 -7.496030 -2.414715 1.182681 12.719541 -15.312915 12.974118 3.538046 15.442069 -2.974535 -21.689849 -14.796133 8.872843 16.845387 -0.327795 5.774817 2.637560 -0.024230 -0.497190 0.220670 18.020629 -10.425893 2.675598 -17.513445 2.148590 -22.033092 7.762080 -4.519756 9.627188 0.041795 -3.041860 3.304465 -0.212550 0.428400 0.289320 -3.035547 -1.955089 -7.668273 7.130119 1.134151 11.005857 7.644017 2.448599 -13.023642 0.875378 2.088006 -5.385863 4.137609 -2.224272 17.343427 -7.940440 4.823680 -8.383100 -4.283950 20.315686 2.535160 -38.593900 39.109087 -18.500130 -8.636462 -87.468682 0.650022 -3.668747 3.805793 0.506350 0.288540 -0.156650 0.078410 3.062337 -19.514493 -1.781137 50.862079 -20.723416 -13.988357 -131.747413 24.900006 -45.612185 1.846678 -2.300124 -0.394780 0.148550 0.146960 -0.264590 
-2.176880 16.861390 -7.510840 -2.547537 3.912846 13.116691 -15.370515 12.829278 3.663686 15.872425 -3.045990 -23.698992 -15.383415 9.389707 18.051967 -0.332289 6.014596 2.548135 -0.036400 -0.503700 0.215400 18.000135 -10.392857 2.589210 -17.316723 2.234903 -21.428182 7.350873 -4.421528 9.526703 0.061764 -3.053352 3.312486 -0.192750 0.463420 0.271450 -2.958563 -1.878790 -7.643082 5.602087 2.165889 10.769042 8.237669 3.035043 -13.261789 1.012165 2.489362 -4.871914 4.881540 -1.712068 16.709516 -7.618160 4.893530 -7.921140 -2.787549 22.177653 2.004420 -38.921965 41.403591 -19.909848 -165.203022 -89.716272 159.873229 -3.687823 3.616694 0.489720 0.316850 -0.185380 0.077880 1.577692 -21.430141 -1.764889 48.866545 -21.896188 -13.156553 -128.802516 27.071678 -45.814132 1.852345 -2.222314 -0.426360 0.179720 0.155010 -0.267060 
